<svg xmlns="http://www.w3.org/2000/svg" xmlns:xlink="http://www.w3.org/1999/xlink" width="217" zoomAndPan="magnify" viewBox="0 0 162.75 30.000001" height="40" preserveAspectRatio="xMidYMid meet" version="1.2"><defs><clipPath id="8bf819c466"><path d="M 2.503906 0 L 160.003906 0 L 160.003906 29.03125 L 2.503906 29.03125 Z M 2.503906 0 "/></clipPath><clipPath id="571c6dfab4"><path d="M 9.828125 -0.136719 L 152.679688 -0.136719 C 154.621094 -0.136719 156.484375 0.636719 157.859375 2.011719 C 159.230469 3.382812 160.003906 5.246094 160.003906 7.191406 L 160.003906 21.839844 C 160.003906 23.785156 159.230469 25.648438 157.859375 27.023438 C 156.484375 28.394531 154.621094 29.167969 152.679688 29.167969 L 9.828125 29.167969 C 7.886719 29.167969 6.023438 28.394531 4.648438 27.023438 C 3.277344 25.648438 2.503906 23.785156 2.503906 21.839844 L 2.503906 7.191406 C 2.503906 5.246094 3.277344 3.382812 4.648438 2.011719 C 6.023438 0.636719 7.886719 -0.136719 9.828125 -0.136719 Z M 9.828125 -0.136719 "/></clipPath><clipPath id="d4e475689d"><path d="M 146.527344 12.347656 L 153.785156 12.347656 L 153.785156 16.703125 L 146.527344 16.703125 Z M 146.527344 12.347656 "/></clipPath></defs><g id="18c89e2661"><g clip-rule="nonzero" clip-path="url(#8bf819c466)"><g clip-rule="nonzero" clip-path="url(#571c6dfab4)"><path style=" stroke:none;fill-rule:nonzero;fill:#182848;fill-opacity:1;" d="M 2.503906 -0.136719 L 160.003906 -0.136719 L 160.003906 29.167969 L 2.503906 29.167969 Z M 2.503906 -0.136719 "/></g></g><g clip-rule="nonzero" clip-path="url(#d4e475689d)"><path style=" stroke:none;fill-rule:evenodd;fill:#ffffff;fill-opacity:1;" d="M 150.574219 16.398438 C 150.34375 16.632812 149.964844 16.632812 149.734375 16.398438 L 146.757812 13.425781 C 146.527344 13.191406 146.527344 12.816406 146.757812 12.585938 C 146.992188 12.351562 147.367188 12.351562 147.601562 12.585938 L 150.15625 15.136719 L 152.707031 12.585938 C 152.941406 12.351562 153.316406 12.351562 153.550781 12.585938 C 153.78125 12.816406 153.78125 13.191406 153.550781 13.425781 Z M 150.574219 16.398438 "/></g></g></svg>